<svg xmlns="http://www.w3.org/2000/svg" viewBox="0 0 16 16"><g id="Layer_1" data-name="Layer 1"><ellipse cx="8" cy="8" rx="6.76" ry="6.77"/><path d="M7.69,10.31a.12.12,0,0,0,.15-.05L9.48,7.8a.14.14,0,0,0-.12-.21H8.41V5.82a.14.14,0,0,0-.1-.13h0a.15.15,0,0,0-.11.06L6.52,8.2a.14.14,0,0,0,.12.21h1v1.77A.14.14,0,0,0,7.69,10.31Zm-.8-2.17L8.14,6.27V7.73a.13.13,0,0,0,.13.13h.84L7.86,9.73V8.27a.13.13,0,0,0-.13-.13Z" style="fill:#fee249"/><path d="M5.64,5.92a.17.17,0,0,0,.21-.12C6.28,4.25,7.11,3.29,8,3.29A2,2,0,0,1,9.64,4.53a6.21,6.21,0,0,0-.86.16.18.18,0,0,0-.13.21A.18.18,0,0,0,8.87,5a6.08,6.08,0,0,1,1-.16,6.08,6.08,0,0,1,.41,1.27,7.38,7.38,0,0,0-.68-.46.19.19,0,0,0-.25.06h0A.18.18,0,0,0,9.37,6a9.15,9.15,0,0,1,1,.67A8.76,8.76,0,0,1,10.43,8c0,.2,0,.4,0,.6a.17.17,0,0,0,.17.18.18.18,0,0,0,.19-.17c0-.2,0-.41,0-.61a8.51,8.51,0,0,0-.06-1,6,6,0,0,1,.88,1A6.3,6.3,0,0,1,9.38,9.89c-.18.11,0,.41.18.31a6.9,6.9,0,0,0,2.26-1.88,2,2,0,0,1,.26,2,2,2,0,0,1-1.61.79.18.18,0,0,0-.17.18.19.19,0,0,0,.19.17,2.22,2.22,0,0,0,1.89-1A2.39,2.39,0,0,0,12.06,8a.05.05,0,0,0,0,0,.05.05,0,0,0,0,0,2.39,2.39,0,0,0,.32-2.49,2.33,2.33,0,0,0-2.16-1H10A2.45,2.45,0,0,0,8,2.94C6.94,2.94,6,4,5.51,5.7A.19.19,0,0,0,5.64,5.92Zm6.44-.28a2,2,0,0,1-.26,2,7,7,0,0,0-1.16-1.21,7.08,7.08,0,0,0-.47-1.63A2.06,2.06,0,0,1,12.08,5.64Z" style="fill:#53af58"/><path d="M4,8a.05.05,0,0,0,0,0,2.39,2.39,0,0,0-.32,2.49A2.48,2.48,0,0,0,6,11.5a2.45,2.45,0,0,0,2,1.56c1.07,0,2-1.07,2.5-2.81a.18.18,0,0,0-.14-.24.16.16,0,0,0-.1,0,.18.18,0,0,0-.1.13C9.74,11.71,8.89,12.71,8,12.71a2,2,0,0,1-1.64-1.24,6.21,6.21,0,0,0,.86-.16.17.17,0,0,0,.12-.26.12.12,0,0,0,0-.05.14.14,0,0,0-.15,0,6.28,6.28,0,0,1-.95.16,5.57,5.57,0,0,1-.42-1.27,7.38,7.38,0,0,0,.68.46.19.19,0,0,0,.25-.06h0A.19.19,0,0,0,6.64,10a9.28,9.28,0,0,1-1-.67A8.76,8.76,0,0,1,5.57,8c0-.2,0-.4,0-.6a.19.19,0,0,0-.17-.19h0a.17.17,0,0,0-.17.16q0,.32,0,.63a8.39,8.39,0,0,0,.06,1,6,6,0,0,1-.88-1A4.89,4.89,0,0,1,6.32,6.32c.15-.09,0-.4-.18-.31a5.27,5.27,0,0,0-2,1.67,2,2,0,0,1-.25-2A1.83,1.83,0,0,1,5.4,4.87a.18.18,0,0,0,0-.36h0a2.15,2.15,0,0,0-1.74,1A2.39,2.39,0,0,0,3.94,8,.05.05,0,0,0,4,8ZM5.34,9.53a7,7,0,0,0,.47,1.62,2,2,0,0,1-1.89-.79,2,2,0,0,1,.26-2A7.38,7.38,0,0,0,5.34,9.53Z" style="fill:#53af58"/></g></svg>