<svg xmlns="http://www.w3.org/2000/svg" viewBox="0 0 128 128"><g id="Layer_1" data-name="Layer 1"><ellipse cx="64" cy="64" rx="56.5" ry="56.53"/><path d="M61.39,83.31a1.15,1.15,0,0,0,1.28-.46l13.66-20.5a1.1,1.1,0,0,0,.06-1.16,1.14,1.14,0,0,0-1-.61h-8V45.78a1.15,1.15,0,0,0-.81-1.09,1.26,1.26,0,0,0-.33,0,1.14,1.14,0,0,0-1,.51L51.67,65.64a1.12,1.12,0,0,0-.06,1.17,1.14,1.14,0,0,0,1,.61h8v14.8A1.15,1.15,0,0,0,61.39,83.31ZM54.74,65.14l10.4-15.6V61.72a1.14,1.14,0,0,0,1.14,1.14h7l-10.4,15.6V66.28a1.14,1.14,0,0,0-1.14-1.14Z" style="fill:#fee249"/><path d="M44.26,46.6a1.46,1.46,0,0,0,1.8-1C49.66,32.66,56.53,24.64,64,24.64c5.29,0,10.12,3.94,13.74,10.37a53.34,53.34,0,0,0-7.22,1.33,1.47,1.47,0,0,0-1.06,1.79,1.48,1.48,0,0,0,1.8,1.06,49.51,49.51,0,0,1,7.92-1.37,52.69,52.69,0,0,1,3.47,10.61c-1.84-1.36-3.75-2.63-5.71-3.82a1.47,1.47,0,0,0-2,.52h0a1.47,1.47,0,0,0,.51,2,73,73,0,0,1,8.08,5.64A74.23,74.23,0,0,1,84.34,64c0,1.66-.06,3.34-.17,5a1.48,1.48,0,0,0,1.42,1.57,1.51,1.51,0,0,0,1.53-1.43c.11-1.69.16-3.41.16-5.09a80.56,80.56,0,0,0-.43-8.36A52.67,52.67,0,0,1,94.2,64C89.62,70.57,84,74.9,75.53,79.8c-1.51.88-.11,3.46,1.47,2.55,8.42-4.9,14.12-9.16,18.94-15.69,3.9,6.62,4.67,12.65,2.15,17-2.86,4.95-8.91,6.32-13.48,6.61a1.48,1.48,0,0,0-1.38,1.57,1.47,1.47,0,0,0,1.56,1.37c7.48-.46,13.11-3.32,15.84-8.08,3.2-5.53,2.25-12.93-2.68-20.84,0-.1-.13-.21-.19-.31s.14-.21.19-.31c4.93-7.9,5.88-15.31,2.68-20.84-3.06-5.31-9.6-8.13-18.09-8.13-.52,0-1.05,0-1.58,0C76.74,26.67,70.76,21.7,64,21.7c-8.85,0-16.81,8.82-20.77,23.09A1.48,1.48,0,0,0,44.26,46.6Zm53.83-2.28c2.52,4.41,1.75,10.4-2.16,17a59.06,59.06,0,0,0-9.7-10.16,58.77,58.77,0,0,0-3.9-13.56C89.83,37.58,95.53,39.89,98.09,44.32Z" style="fill:#53af58"/><path d="M30.24,64l-.2.31c-4.91,7.91-5.88,15.31-2.67,20.84s10.45,8.46,19.69,8.09c4.21,8.09,10.2,13.06,16.94,13.06,9,0,17-9,20.86-23.47a1.47,1.47,0,0,0-1.16-2,1.44,1.44,0,0,0-.84.13,1.48,1.48,0,0,0-.82,1.1c-3.5,13-10.58,21.31-18,21.31-5.28,0-10.11-3.93-13.73-10.36a52.43,52.43,0,0,0,7.24-1.35,1.47,1.47,0,0,0,1-2.17,1.41,1.41,0,0,0-.4-.44,1.47,1.47,0,0,0-1.3-.23,49.63,49.63,0,0,1-7.93,1.37,52.81,52.81,0,0,1-3.51-10.61c1.86,1.36,3.77,2.64,5.74,3.82a1.47,1.47,0,0,0,2-.52h0a1.47,1.47,0,0,0-.52-2,71.66,71.66,0,0,1-8.08-5.64A73,73,0,0,1,43.67,64c0-1.68.06-3.37.17-5a1.48,1.48,0,0,0-1.37-1.57h-.1a1.47,1.47,0,0,0-1.47,1.37c-.11,1.73-.17,3.49-.17,5.24a77.58,77.58,0,0,0,.44,8.35A51.67,51.67,0,0,1,33.82,64C38.4,57.47,41.5,54.84,50,49.94c1.3-.74-.12-3.3-1.47-2.57-8.4,4.85-11.55,7.41-16.38,13.93-3.9-6.61-4.67-12.64-2.15-17,2.64-4.58,8.14-6.05,12.28-6.46a1.47,1.47,0,1,0-.14-2.94h-.15c-6.92.73-12,3.44-14.57,8C24.18,48.37,25.13,55.78,30,63.68ZM41.77,76.79a58.8,58.8,0,0,0,3.91,13.56c-7.51.07-13.23-2.24-15.76-6.67s-1.76-10.4,2.14-17A59.7,59.7,0,0,0,41.77,76.79Z" style="fill:#53af58"/></g></svg>