<svg xmlns="http://www.w3.org/2000/svg" viewBox="0 0 512 512"><g id="Layer_1" data-name="Layer 1"><ellipse cx="256" cy="256" rx="225.99" ry="226.13"/><path d="M245.57,333.22a4.54,4.54,0,0,0,5.11-1.83l54.65-82a4.55,4.55,0,0,0-3.79-7.08H269.66V183.13a4.56,4.56,0,0,0-3.23-4.36,4.63,4.63,0,0,0-1.32-.19,4.57,4.57,0,0,0-3.79,2l-54.65,82a4.55,4.55,0,0,0,3.79,7.08h31.88v59.21A4.54,4.54,0,0,0,245.57,333.22ZM219,260.55l41.58-62.38v48.72a4.56,4.56,0,0,0,4.56,4.55H293l-41.58,62.38V265.11a4.56,4.56,0,0,0-4.56-4.56Z" style="fill:#fee249"/><path d="M177,186.39a5.87,5.87,0,0,0,7.23-4.09c14.38-51.64,41.86-83.74,71.76-83.74,21.16,0,40.48,15.75,54.94,41.47a217.54,217.54,0,0,0-28.87,5.32A5.89,5.89,0,0,0,285,156.76a200.65,200.65,0,0,1,31.72-5.5,214.22,214.22,0,0,1,13.87,42.45q-11.07-8.13-22.84-15.28a5.9,5.9,0,0,0-8.18,2.09h0a5.87,5.87,0,0,0,2.05,8A296,296,0,0,1,334,211a299.68,299.68,0,0,1,3.39,45c0,6.64-.21,13.35-.65,19.93a5.89,5.89,0,0,0,5.67,6.27,6,6,0,0,0,6.1-5.73c.43-6.75.66-13.64.66-20.35a324.57,324.57,0,0,0-1.73-33.43,208.61,208.61,0,0,1,29.39,33.43c-18.31,26.16-40.89,43.49-74.66,63.09-6.06,3.5-.44,13.82,5.88,10.2,33.69-19.6,56.47-36.67,75.75-62.77,15.61,26.49,18.7,50.59,8.59,68.08-11.44,19.79-35.63,25.28-53.92,26.46a5.89,5.89,0,0,0,.74,11.76c29.89-1.86,52.41-13.29,63.35-32.34,12.78-22.13,9-51.74-10.7-83.37-.24-.41-.53-.82-.8-1.23.27-.41.56-.82.8-1.23,19.69-31.61,23.51-61.24,10.7-83.37-12.23-21.22-38.39-32.51-72.38-32.51-2.05,0-4.17,0-6.32.14C307,106.7,283,86.8,256,86.8c-35.42,0-67.26,35.27-83.08,92.36A5.89,5.89,0,0,0,177,186.39Zm215.33-9.11c10.08,17.64,7,41.59-8.62,68.08a236.2,236.2,0,0,0-38.8-40.63,236.77,236.77,0,0,0-15.61-54.26C359.33,150.32,382.12,159.55,392.35,177.28Z" style="fill:#53af58"/><path d="M121,256c-.23.41-.53.82-.79,1.23-19.67,31.63-23.52,61.24-10.67,83.37s41.8,33.84,78.72,32.37C205.06,405.3,229,425.2,256,425.2c35.83,0,67.84-36,83.42-93.89a5.88,5.88,0,0,0-4.62-8,5.67,5.67,0,0,0-3.39.52,6,6,0,0,0-3.25,4.4c-14,51.79-42.33,85.24-72.16,85.24-21.14,0-40.45-15.72-54.94-41.44a217.7,217.7,0,0,0,29-5.38,5.9,5.9,0,0,0,3.85-8.7,5.44,5.44,0,0,0-1.57-1.77,6,6,0,0,0-5.22-.91,203,203,0,0,1-31.72,5.5,210,210,0,0,1-14-42.45q11.13,8.16,22.94,15.28a5.9,5.9,0,0,0,8.16-2.1h0a5.87,5.87,0,0,0-2.06-7.94A293.42,293.42,0,0,1,178.08,301a295.81,295.81,0,0,1-3.41-45c0-6.73.23-13.49.68-20.14a5.89,5.89,0,0,0-5.47-6.26h-.38a5.88,5.88,0,0,0-5.88,5.5c-.47,6.91-.71,13.93-.71,20.93a318.89,318.89,0,0,0,1.76,33.42A208.6,208.6,0,0,1,135.28,256c18.31-26.16,30.72-36.67,64.5-56.28,5.2-2.94-.47-13.2-5.88-10.26-33.57,19.4-46.19,29.62-65.5,55.72-15.61-26.45-18.7-50.56-8.58-68.08,10.52-18.34,32.54-24.19,49.12-25.87a5.89,5.89,0,0,0-.59-11.76h-.59c-27.69,2.94-47.86,13.79-58.26,31.84-12.79,22.14-9,51.77,10.67,83.37C120.43,255.18,120.73,255.59,121,256Zm46.12,51.15a235.55,235.55,0,0,0,15.64,54.26c-30,.27-52.91-9-63-26.69s-7-41.59,8.58-68.08A237.91,237.91,0,0,0,167.08,307.15Z" style="fill:#53af58"/></g></svg>