<svg xmlns="http://www.w3.org/2000/svg" viewBox="0 0 256 256"><g id="Layer_1" data-name="Layer 1"><ellipse cx="128" cy="128" rx="112.33" ry="112.4"/><path d="M122.82,166.39a2.28,2.28,0,0,0,2.54-.91l27.16-40.75a2.27,2.27,0,0,0-1.88-3.52H134.79V91.78a2.26,2.26,0,0,0-1.61-2.17,2.37,2.37,0,0,0-.65-.09,2.26,2.26,0,0,0-1.89,1l-27.16,40.75a2.27,2.27,0,0,0,1.88,3.52h15.85v29.43A2.27,2.27,0,0,0,122.82,166.39Zm-13.23-36.13,20.67-31v24.21a2.27,2.27,0,0,0,2.27,2.27h13.88l-20.67,31V132.53a2.27,2.27,0,0,0-2.27-2.27Z" style="fill:#fee249"/><path d="M88.74,93.4a2.93,2.93,0,0,0,3.6-2C99.48,65.7,113.14,49.74,128,49.74c10.52,0,20.12,7.83,27.31,20.62A107.49,107.49,0,0,0,141,73a2.93,2.93,0,0,0,1.47,5.67,100.1,100.1,0,0,1,15.76-2.73,106.31,106.31,0,0,1,6.9,21.1q-5.51-4-11.36-7.6a2.93,2.93,0,0,0-4.06,1h0a2.93,2.93,0,0,0,1,4,145.94,145.94,0,0,1,16.06,11.2A146.87,146.87,0,0,1,168.43,128c0,3.3-.1,6.63-.32,9.91a2.93,2.93,0,0,0,2.82,3.11,3,3,0,0,0,3-2.85c.22-3.35.33-6.77.33-10.11a161.51,161.51,0,0,0-.86-16.61A103.51,103.51,0,0,1,188,128.06c-9.1,13-20.32,21.61-37.11,31.36-3,1.74-.22,6.87,2.92,5.07,16.75-9.75,28.07-18.23,37.65-31.2,7.76,13.16,9.3,25.15,4.27,33.84-5.68,9.83-17.71,12.57-26.8,13.15a2.93,2.93,0,1,0,.37,5.84c14.86-.92,26-6.6,31.49-16.07,6.35-11,4.47-25.71-5.32-41.44-.12-.2-.26-.41-.4-.61.14-.2.28-.41.4-.61C205.3,111.68,207.2,97,200.83,86c-6.08-10.55-19.09-16.16-36-16.16-1,0-2.07,0-3.14.07-8.38-16.07-20.28-26-33.71-26-17.6,0-33.43,17.53-41.29,45.91A2.92,2.92,0,0,0,88.74,93.4Zm107-4.53c5,8.77,3.48,20.68-4.28,33.84a117.44,117.44,0,0,0-19.29-20.19,117.33,117.33,0,0,0-7.76-27C179.36,75.47,190.69,80.06,195.77,88.87Z" style="fill:#53af58"/><path d="M60.88,128c-.12.2-.26.41-.4.61-9.77,15.73-11.69,30.44-5.3,41.44S76,186.87,94.31,186.14c8.37,16.07,20.28,26,33.69,26,17.81,0,33.73-17.88,41.47-46.67a2.93,2.93,0,0,0-2.3-4,2.79,2.79,0,0,0-1.68.26,3,3,0,0,0-1.62,2.19c-7,25.74-21,42.37-35.87,42.37-10.5,0-20.1-7.82-27.31-20.6A108.16,108.16,0,0,0,115.1,183a2.93,2.93,0,0,0,1.92-4.32,2.67,2.67,0,0,0-.79-.88,3,3,0,0,0-2.59-.45,100.22,100.22,0,0,1-15.77,2.73,104.37,104.37,0,0,1-7-21.1q5.52,4,11.4,7.6a2.92,2.92,0,0,0,4-1.05h0a2.92,2.92,0,0,0-1-3.95,144.71,144.71,0,0,1-16.07-11.2A146.89,146.89,0,0,1,87.57,128c0-3.35.12-6.71.34-10a2.92,2.92,0,0,0-2.72-3.11H85a2.92,2.92,0,0,0-2.92,2.73c-.23,3.43-.35,6.93-.35,10.4a156.41,156.41,0,0,0,.88,16.62A103.7,103.7,0,0,1,68,128c9.11-13,15.28-18.22,32.07-28,2.58-1.46-.24-6.56-2.93-5.1-16.68,9.64-22.95,14.72-32.55,27.7-7.76-13.15-9.3-25.13-4.27-33.84,5.23-9.12,16.17-12,24.41-12.86a2.93,2.93,0,0,0-.29-5.85h-.29c-13.76,1.47-23.79,6.86-29,15.83-6.36,11-4.47,25.73,5.3,41.44ZM83.8,153.42a116.88,116.88,0,0,0,7.78,27c-14.94.13-26.3-4.46-31.34-13.27s-3.5-20.68,4.26-33.84A118.28,118.28,0,0,0,83.8,153.42Z" style="fill:#53af58"/></g></svg>