<svg xmlns="http://www.w3.org/2000/svg" viewBox="0 0 32 32"><g id="Layer_1" data-name="Layer 1"><ellipse cx="16" cy="16" rx="13.35" ry="13.36"/><path d="M15.38,20.56a.27.27,0,0,0,.31-.11l3.22-4.84a.26.26,0,0,0,0-.27.28.28,0,0,0-.24-.15H16.81V11.7a.27.27,0,0,0-.19-.26h-.08a.27.27,0,0,0-.23.12l-3.22,4.84a.26.26,0,0,0,0,.27.28.28,0,0,0,.24.15h1.88V20.3A.27.27,0,0,0,15.38,20.56Zm-1.57-4.29,2.46-3.69v2.88a.27.27,0,0,0,.27.27h1.65l-2.46,3.69V16.54a.27.27,0,0,0-.27-.27Z" style="fill:#fee249"/><path d="M11.33,11.89a.35.35,0,0,0,.43-.24C12.61,8.6,14.23,6.7,16,6.7c1.25,0,2.39.93,3.25,2.45a13.91,13.91,0,0,0-1.71.31.35.35,0,0,0,.17.68,12.14,12.14,0,0,1,1.88-.33,13.16,13.16,0,0,1,.82,2.51q-.66-.48-1.35-.9a.36.36,0,0,0-.49.12h0a.34.34,0,0,0,.13.47,19.18,19.18,0,0,1,1.91,1.33A16.92,16.92,0,0,1,20.8,16c0,.39,0,.79,0,1.18a.34.34,0,0,0,.33.37.36.36,0,0,0,.36-.34c0-.4,0-.81,0-1.2a18.75,18.75,0,0,0-.1-2,12.6,12.6,0,0,1,1.74,2,12.7,12.7,0,0,1-4.42,3.72c-.35.21,0,.82.35.61a13.63,13.63,0,0,0,4.48-3.71c.92,1.56,1.1,3,.5,4a3.8,3.8,0,0,1-3.18,1.56.35.35,0,0,0-.33.37.36.36,0,0,0,.37.33A4.39,4.39,0,0,0,24.65,21c.76-1.31.54-3.06-.63-4.93L24,16l0-.07c1.17-1.87,1.39-3.62.63-4.93s-2.26-1.92-4.27-1.92H20C19,7.18,17.6,6,16,6c-2.09,0-4,2.08-4.91,5.45A.35.35,0,0,0,11.33,11.89Zm12.72-.54c.6,1,.42,2.46-.51,4A13.69,13.69,0,0,0,21.25,13a14.13,14.13,0,0,0-.92-3.2C22.1,9.76,23.45,10.3,24.05,11.35Z" style="fill:#53af58"/><path d="M8,16l0,.07C6.82,17.94,6.59,19.69,7.35,21S9.82,23,12,22.91C13,24.82,14.41,26,16,26c2.12,0,4-2.12,4.93-5.54a.36.36,0,0,0-.27-.48.32.32,0,0,0-.21,0,.37.37,0,0,0-.19.25c-.83,3.06-2.5,5-4.26,5-1.25,0-2.39-.93-3.24-2.45a12.84,12.84,0,0,0,1.71-.32.34.34,0,0,0,.22-.51.22.22,0,0,0-.09-.1.35.35,0,0,0-.31-.06,11.81,11.81,0,0,1-1.87.33,13.19,13.19,0,0,1-.83-2.51c.44.32.89.62,1.36.9a.35.35,0,0,0,.48-.12h0a.35.35,0,0,0-.12-.47,17.11,17.11,0,0,1-1.91-1.33A16.93,16.93,0,0,1,11.2,16c0-.4,0-.8,0-1.19a.35.35,0,0,0-.33-.37h0a.35.35,0,0,0-.35.33c0,.4,0,.82,0,1.23a18.77,18.77,0,0,0,.11,2,12.6,12.6,0,0,1-1.74-2,9.68,9.68,0,0,1,3.81-3.32c.31-.18,0-.78-.35-.61a10.35,10.35,0,0,0-3.87,3.29c-.92-1.56-1.1-3-.5-4a3.65,3.65,0,0,1,2.9-1.53.35.35,0,0,0,.33-.36.35.35,0,0,0-.37-.33h0A4.2,4.2,0,0,0,7.35,11c-.76,1.31-.53,3.06.63,4.92Zm2.73,3a14.37,14.37,0,0,0,.92,3.21c-1.77,0-3.12-.53-3.72-1.58s-.42-2.46.5-4A14.06,14.06,0,0,0,10.75,19Z" style="fill:#53af58"/></g></svg>